# xmcd
#
# Track frame offsets:
#	187
#	16712
#	36385
#	52335
#	71765
#	93940
#	113937
#	131997
#	150262
#	167622
#	186835
#	211925
#
# Disc length: 3026 seconds
# Revision: 1
# Processed by: cddbd v1.5.2PL0 Copyright (c) Steve Scherf et al.
# Submitted via: dBpowerAMP V12.0
#
DISCID=a40bd00c
DTITLE=Trudy Lynn - 24 Hour Woman
DYEAR=1994
DGENRE=Soul
TTITLE0=8 Days on The Road
TTITLE1=I Didn't Know (How Happy I Could Be)
TTITLE2=24 Hour Woman
TTITLE3=2 Girls For The Price of 1
TTITLE4=Old Bitterness
TTITLE5=Your Good Thing
TTITLE6=Real Lovin'
TTITLE7=I Still Believe in You
TTITLE8=Pay The Price
TTITLE9=My Man
TTITLE10=In my Arms
TTITLE11=Just Because
EXTD=
EXTT0=
EXTT1=
EXTT2=
EXTT3=
EXTT4=
EXTT5=
EXTT6=
EXTT7=
EXTT8=
EXTT9=
EXTT10=
EXTT11=
PLAYORDER=
